<svg width="133" height="133" viewBox="0 0 133 133" fill="none" xmlns="http://www.w3.org/2000/svg">
<path d="M60.959 94.2085H72.0423V72.0418H94.209V60.9585H72.0423V38.7918H60.959V60.9585H38.7923V72.0418H60.959V94.2085ZM66.5006 121.917C58.8347 121.917 51.6305 120.485 44.8882 117.622C38.1458 114.666 32.2809 110.695 27.2934 105.707C22.3059 100.72 18.3343 94.855 15.3788 88.1127C12.5156 81.3703 11.084 74.1661 11.084 66.5002C11.084 58.8342 12.5156 51.63 15.3788 44.8877C18.3343 38.1453 22.3059 32.2804 27.2934 27.2929C32.2809 22.3054 38.1458 18.38 44.8882 15.5168C51.6305 12.5613 58.8347 11.0835 66.5006 11.0835C74.1666 11.0835 81.3708 12.5613 88.1132 15.5168C94.8555 18.38 100.72 22.3054 105.708 27.2929C110.695 32.2804 114.621 38.1453 117.484 44.8877C120.44 51.63 121.917 58.8342 121.917 66.5002C121.917 74.1661 120.44 81.3703 117.484 88.1127C114.621 94.855 110.695 100.72 105.708 105.707C100.72 110.695 94.8555 114.666 88.1132 117.622C81.3708 120.485 74.1666 121.917 66.5006 121.917ZM66.5006 110.834C78.877 110.834 89.36 106.539 97.9496 97.9491C106.539 89.3595 110.834 78.8766 110.834 66.5002C110.834 54.1238 106.539 43.6408 97.9496 35.0512C89.36 26.4616 78.877 22.1668 66.5006 22.1668C54.1243 22.1668 43.6413 26.4616 35.0517 35.0512C26.4621 43.6408 22.1673 54.1238 22.1673 66.5002C22.1673 78.8766 26.4621 89.3595 35.0517 97.9491C43.6413 106.539 54.1243 110.834 66.5006 110.834Z" fill="#1D1B20"/>
</svg>
