<svg width="133" height="133" viewBox="0 0 133 133" fill="none" xmlns="http://www.w3.org/2000/svg">
<path d="M60.9583 77.5833V54.5854L52.0917 63.4521L44.3333 55.4167L66.5 33.25L88.6667 55.4167L80.9083 63.4521L72.0417 54.5854V77.5833H60.9583ZM27.7083 116.375C24.6604 116.375 22.0281 115.313 19.8115 113.189C17.6872 110.972 16.625 108.34 16.625 105.292V27.7083C16.625 24.6604 17.6872 22.0743 19.8115 19.95C22.0281 17.7333 24.6604 16.625 27.7083 16.625H105.292C108.34 16.625 110.926 17.7333 113.05 19.95C115.267 22.0743 116.375 24.6604 116.375 27.7083V105.292C116.375 108.34 115.267 110.972 113.05 113.189C110.926 115.313 108.34 116.375 105.292 116.375H27.7083ZM27.7083 105.292H105.292V88.6667H88.6667C85.8958 92.1764 82.5708 94.901 78.6917 96.8406C74.9049 98.7802 70.841 99.75 66.5 99.75C62.159 99.75 58.049 98.7802 54.1698 96.8406C50.383 94.901 47.1042 92.1764 44.3333 88.6667H27.7083V105.292ZM66.5 88.6667C70.0097 88.6667 73.1962 87.6507 76.0594 85.6188C78.9226 83.5868 80.9083 80.9083 82.0167 77.5833H105.292V27.7083H27.7083V77.5833H50.9833C52.0917 80.9083 54.0774 83.5868 56.9406 85.6188C59.8038 87.6507 62.9903 88.6667 66.5 88.6667ZM27.7083 105.292H44.3333C47.1042 105.292 50.383 105.292 54.1698 105.292C58.049 105.292 62.159 105.292 66.5 105.292C70.841 105.292 74.9049 105.292 78.6917 105.292C82.5708 105.292 85.8958 105.292 88.6667 105.292H105.292H27.7083Z" fill="#1D1B20"/>
</svg>
